<mxfile host="app.diagrams.net" modified="2022-10-28T02:43:28.995Z" agent="5.0 (Windows NT 10.0; Win64; x64) AppleWebKit/537.36 (KHTML, like Gecko) Chrome/106.0.0.0 Safari/537.36 Edg/106.0.1370.52" etag="3syvnIgbash5FNg8b960" version="20.5.1" type="github">
  <diagram id="O2MLRlDGVUjoWKtVMS4U" name="Page-1">
    <mxGraphModel dx="231" dy="256" grid="1" gridSize="10" guides="1" tooltips="1" connect="1" arrows="1" fold="1" page="1" pageScale="1" pageWidth="850" pageHeight="1100" math="0" shadow="0">
      <root>
        <mxCell id="0" />
        <mxCell id="1" parent="0" />
        <mxCell id="0R-H_kfF0VCHGT1HLo31-104" value="1C LiPo 600mAh&lt;br&gt;BAT" style="shape=process;whiteSpace=wrap;html=1;backgroundOutline=1;strokeColor=#b85450;fontSize=17;fillColor=#f8cecc;size=0.2727272727272727;" parent="1" vertex="1">
          <mxGeometry x="950" y="365" width="220" height="130" as="geometry" />
        </mxCell>
        <mxCell id="0R-H_kfF0VCHGT1HLo31-144" value="" style="group;" parent="1" vertex="1" connectable="0">
          <mxGeometry x="50" y="540" width="240" height="190" as="geometry" />
        </mxCell>
        <mxCell id="0R-H_kfF0VCHGT1HLo31-145" value="&lt;b&gt;&lt;font style=&quot;font-size: 17px;&quot;&gt;ADXL375&lt;/font&gt;&lt;/b&gt;" style="rounded=0;whiteSpace=wrap;html=1;" parent="0R-H_kfF0VCHGT1HLo31-144" vertex="1">
          <mxGeometry width="240" height="190" as="geometry" />
        </mxCell>
        <mxCell id="0R-H_kfF0VCHGT1HLo31-146" value="&lt;strike&gt;I2C&lt;/strike&gt;" style="rounded=1;whiteSpace=wrap;html=1;strokeColor=#6c8ebf;fontSize=17;rotation=-90;fillColor=#dae8fc;" parent="0R-H_kfF0VCHGT1HLo31-144" vertex="1">
          <mxGeometry y="65.51724137931035" width="65.45454545454545" height="58.96551724137932" as="geometry" />
        </mxCell>
        <mxCell id="0R-H_kfF0VCHGT1HLo31-147" value="&lt;strike&gt;I2C&lt;/strike&gt;" style="rounded=1;whiteSpace=wrap;html=1;strokeColor=#6c8ebf;fontSize=17;rotation=-90;fillColor=#dae8fc;" parent="0R-H_kfF0VCHGT1HLo31-144" vertex="1">
          <mxGeometry x="169.09090909090907" y="65.51724137931035" width="76.36363636363635" height="58.96551724137932" as="geometry" />
        </mxCell>
        <mxCell id="0R-H_kfF0VCHGT1HLo31-149" value="3V" style="text;html=1;align=center;verticalAlign=middle;resizable=0;points=[];autosize=1;strokeColor=none;fillColor=none;fontSize=17;rotation=-90;" parent="0R-H_kfF0VCHGT1HLo31-144" vertex="1">
          <mxGeometry x="54.54545454545455" y="149.9996551724138" width="40" height="30" as="geometry" />
        </mxCell>
        <mxCell id="0R-H_kfF0VCHGT1HLo31-151" value="SCL" style="text;html=1;align=center;verticalAlign=middle;resizable=0;points=[];autosize=1;strokeColor=none;fillColor=none;fontSize=17;rotation=-90;" parent="0R-H_kfF0VCHGT1HLo31-144" vertex="1">
          <mxGeometry x="98.18181818181819" y="142.99793103448278" width="60" height="30" as="geometry" />
        </mxCell>
        <mxCell id="0R-H_kfF0VCHGT1HLo31-152" value="SDA" style="text;html=1;align=center;verticalAlign=middle;resizable=0;points=[];autosize=1;strokeColor=none;fillColor=none;fontSize=17;rotation=-90;" parent="0R-H_kfF0VCHGT1HLo31-144" vertex="1">
          <mxGeometry x="125.45454545454544" y="144.44793103448276" width="60" height="30" as="geometry" />
        </mxCell>
        <mxCell id="0R-H_kfF0VCHGT1HLo31-153" value="INT" style="text;html=1;align=center;verticalAlign=middle;resizable=0;points=[];autosize=1;strokeColor=none;fillColor=none;fontSize=17;rotation=-90;" parent="0R-H_kfF0VCHGT1HLo31-144" vertex="1">
          <mxGeometry x="152.7272727272727" y="147.37896551724137" width="50" height="30" as="geometry" />
        </mxCell>
        <mxCell id="0R-H_kfF0VCHGT1HLo31-155" value="I2" style="text;html=1;align=center;verticalAlign=middle;resizable=0;points=[];autosize=1;strokeColor=none;fillColor=none;fontSize=17;rotation=-90;" parent="0R-H_kfF0VCHGT1HLo31-144" vertex="1">
          <mxGeometry x="54.54545454545455" y="6.758620689655173" width="40" height="30" as="geometry" />
        </mxCell>
        <mxCell id="0R-H_kfF0VCHGT1HLo31-156" value="SDO" style="text;html=1;align=center;verticalAlign=middle;resizable=0;points=[];autosize=1;strokeColor=none;fillColor=none;fontSize=17;rotation=-90;" parent="0R-H_kfF0VCHGT1HLo31-144" vertex="1">
          <mxGeometry x="70.9090909090909" y="14.862068965517242" width="60" height="30" as="geometry" />
        </mxCell>
        <mxCell id="0R-H_kfF0VCHGT1HLo31-157" value="CS" style="text;html=1;align=center;verticalAlign=middle;resizable=0;points=[];autosize=1;strokeColor=none;fillColor=none;fontSize=17;rotation=-90;" parent="0R-H_kfF0VCHGT1HLo31-144" vertex="1">
          <mxGeometry x="103.63636363636363" y="10" width="50" height="30" as="geometry" />
        </mxCell>
        <mxCell id="0R-H_kfF0VCHGT1HLo31-159" value="" style="endArrow=classic;startArrow=none;html=1;rounded=0;strokeWidth=2;fontSize=17;endFill=1;startFill=0;exitX=0.5;exitY=0;exitDx=0;exitDy=0;" parent="0R-H_kfF0VCHGT1HLo31-144" edge="1">
          <mxGeometry width="50" height="50" relative="1" as="geometry">
            <mxPoint x="184.1800000000003" y="28.999999999999943" as="sourcePoint" />
            <mxPoint x="184" y="4.759999999999991" as="targetPoint" />
          </mxGeometry>
        </mxCell>
        <mxCell id="0R-H_kfF0VCHGT1HLo31-160" value="" style="endArrow=classic;startArrow=none;html=1;rounded=0;strokeWidth=2;fontSize=17;endFill=1;startFill=0;exitX=1;exitY=0.5;exitDx=0;exitDy=0;" parent="0R-H_kfF0VCHGT1HLo31-144" source="0R-H_kfF0VCHGT1HLo31-161" edge="1">
          <mxGeometry width="50" height="50" relative="1" as="geometry">
            <mxPoint x="190" y="33.75999999999999" as="sourcePoint" />
            <mxPoint x="213.73000000000008" y="34" as="targetPoint" />
          </mxGeometry>
        </mxCell>
        <mxCell id="0R-H_kfF0VCHGT1HLo31-161" value="" style="ellipse;whiteSpace=wrap;html=1;aspect=fixed;strokeColor=default;fontSize=17;" parent="0R-H_kfF0VCHGT1HLo31-144" vertex="1">
          <mxGeometry x="179.18000000000006" y="29" width="10" height="10" as="geometry" />
        </mxCell>
        <mxCell id="0R-H_kfF0VCHGT1HLo31-163" value="Z" style="text;html=1;align=center;verticalAlign=middle;resizable=0;points=[];autosize=1;strokeColor=none;fillColor=none;fontSize=16;fontStyle=1" parent="0R-H_kfF0VCHGT1HLo31-144" vertex="1">
          <mxGeometry x="159.1800000000001" y="29.999999999999996" width="30" height="30" as="geometry" />
        </mxCell>
        <mxCell id="0R-H_kfF0VCHGT1HLo31-164" value="&lt;b style=&quot;font-size: 16px;&quot;&gt;Y&lt;/b&gt;" style="text;html=1;align=center;verticalAlign=middle;resizable=0;points=[];autosize=1;strokeColor=none;fillColor=none;fontSize=16;" parent="0R-H_kfF0VCHGT1HLo31-144" vertex="1">
          <mxGeometry x="158.18000000000006" y="-5" width="30" height="30" as="geometry" />
        </mxCell>
        <mxCell id="0R-H_kfF0VCHGT1HLo31-165" value="&lt;b style=&quot;font-size: 16px;&quot;&gt;X&lt;/b&gt;" style="text;html=1;align=center;verticalAlign=middle;resizable=0;points=[];autosize=1;strokeColor=none;fillColor=none;fontSize=16;" parent="0R-H_kfF0VCHGT1HLo31-144" vertex="1">
          <mxGeometry x="198.18000000000006" y="31" width="30" height="30" as="geometry" />
        </mxCell>
        <mxCell id="0R-H_kfF0VCHGT1HLo31-262" value="GND" style="text;html=1;align=center;verticalAlign=middle;resizable=0;points=[];autosize=1;strokeColor=none;fillColor=none;fontSize=17;rotation=-90;" parent="0R-H_kfF0VCHGT1HLo31-144" vertex="1">
          <mxGeometry x="10.913636363636328" y="16.002068965517253" width="60" height="30" as="geometry" />
        </mxCell>
        <mxCell id="0R-H_kfF0VCHGT1HLo31-264" value="GND" style="text;html=1;align=center;verticalAlign=middle;resizable=0;points=[];autosize=1;strokeColor=none;fillColor=none;fontSize=17;rotation=-90;" parent="0R-H_kfF0VCHGT1HLo31-144" vertex="1">
          <mxGeometry x="70.90909090909088" y="143.44793103448274" width="60" height="30" as="geometry" />
        </mxCell>
        <mxCell id="0R-H_kfF0VCHGT1HLo31-192" value="I2C CONNECTION DEFINITIONS" style="shape=table;startSize=30;container=1;collapsible=0;childLayout=tableLayout;fixedRows=1;rowLines=0;fontStyle=1;strokeColor=default;fontSize=16;" parent="1" vertex="1">
          <mxGeometry x="1250" y="200" width="290" height="120" as="geometry" />
        </mxCell>
        <mxCell id="0R-H_kfF0VCHGT1HLo31-193" value="" style="shape=tableRow;horizontal=0;startSize=0;swimlaneHead=0;swimlaneBody=0;top=0;left=0;bottom=0;right=0;collapsible=0;dropTarget=0;fillColor=none;points=[[0,0.5],[1,0.5]];portConstraint=eastwest;strokeColor=default;fontSize=16;" parent="0R-H_kfF0VCHGT1HLo31-192" vertex="1">
          <mxGeometry y="30" width="290" height="30" as="geometry" />
        </mxCell>
        <mxCell id="0R-H_kfF0VCHGT1HLo31-194" value="SCL" style="shape=partialRectangle;html=1;whiteSpace=wrap;connectable=0;fillColor=none;top=0;left=0;bottom=0;right=0;overflow=hidden;pointerEvents=1;strokeColor=default;fontSize=16;" parent="0R-H_kfF0VCHGT1HLo31-193" vertex="1">
          <mxGeometry width="64" height="30" as="geometry">
            <mxRectangle width="64" height="30" as="alternateBounds" />
          </mxGeometry>
        </mxCell>
        <mxCell id="0R-H_kfF0VCHGT1HLo31-195" value="I2C Clock" style="shape=partialRectangle;html=1;whiteSpace=wrap;connectable=0;fillColor=none;top=0;left=0;bottom=0;right=0;align=left;spacingLeft=6;overflow=hidden;strokeColor=default;fontSize=16;" parent="0R-H_kfF0VCHGT1HLo31-193" vertex="1">
          <mxGeometry x="64" width="226" height="30" as="geometry">
            <mxRectangle width="226" height="30" as="alternateBounds" />
          </mxGeometry>
        </mxCell>
        <mxCell id="0R-H_kfF0VCHGT1HLo31-196" value="" style="shape=tableRow;horizontal=0;startSize=0;swimlaneHead=0;swimlaneBody=0;top=0;left=0;bottom=0;right=0;collapsible=0;dropTarget=0;fillColor=none;points=[[0,0.5],[1,0.5]];portConstraint=eastwest;strokeColor=default;fontSize=16;" parent="0R-H_kfF0VCHGT1HLo31-192" vertex="1">
          <mxGeometry y="60" width="290" height="30" as="geometry" />
        </mxCell>
        <mxCell id="0R-H_kfF0VCHGT1HLo31-197" value="SDA" style="shape=partialRectangle;html=1;whiteSpace=wrap;connectable=0;fillColor=none;top=0;left=0;bottom=0;right=0;overflow=hidden;strokeColor=default;fontSize=16;" parent="0R-H_kfF0VCHGT1HLo31-196" vertex="1">
          <mxGeometry width="64" height="30" as="geometry">
            <mxRectangle width="64" height="30" as="alternateBounds" />
          </mxGeometry>
        </mxCell>
        <mxCell id="0R-H_kfF0VCHGT1HLo31-198" value="I2C Serial Data IN" style="shape=partialRectangle;html=1;whiteSpace=wrap;connectable=0;fillColor=none;top=0;left=0;bottom=0;right=0;align=left;spacingLeft=6;overflow=hidden;strokeColor=default;fontSize=16;" parent="0R-H_kfF0VCHGT1HLo31-196" vertex="1">
          <mxGeometry x="64" width="226" height="30" as="geometry">
            <mxRectangle width="226" height="30" as="alternateBounds" />
          </mxGeometry>
        </mxCell>
        <mxCell id="0R-H_kfF0VCHGT1HLo31-199" value="" style="shape=tableRow;horizontal=0;startSize=0;swimlaneHead=0;swimlaneBody=0;top=0;left=0;bottom=0;right=0;collapsible=0;dropTarget=0;fillColor=none;points=[[0,0.5],[1,0.5]];portConstraint=eastwest;strokeColor=default;fontSize=16;" parent="0R-H_kfF0VCHGT1HLo31-192" vertex="1">
          <mxGeometry y="90" width="290" height="30" as="geometry" />
        </mxCell>
        <mxCell id="0R-H_kfF0VCHGT1HLo31-200" value="SDO" style="shape=partialRectangle;html=1;whiteSpace=wrap;connectable=0;fillColor=none;top=0;left=0;bottom=0;right=0;overflow=hidden;strokeColor=default;fontSize=16;" parent="0R-H_kfF0VCHGT1HLo31-199" vertex="1">
          <mxGeometry width="64" height="30" as="geometry">
            <mxRectangle width="64" height="30" as="alternateBounds" />
          </mxGeometry>
        </mxCell>
        <mxCell id="0R-H_kfF0VCHGT1HLo31-201" value="I2C Serial Data OUT" style="shape=partialRectangle;html=1;whiteSpace=wrap;connectable=0;fillColor=none;top=0;left=0;bottom=0;right=0;align=left;spacingLeft=6;overflow=hidden;strokeColor=default;fontSize=16;" parent="0R-H_kfF0VCHGT1HLo31-199" vertex="1">
          <mxGeometry x="64" width="226" height="30" as="geometry">
            <mxRectangle width="226" height="30" as="alternateBounds" />
          </mxGeometry>
        </mxCell>
        <mxCell id="0R-H_kfF0VCHGT1HLo31-210" value="SPI CONNECTION DEFINITIONS" style="shape=table;startSize=30;container=1;collapsible=0;childLayout=tableLayout;fixedRows=1;rowLines=0;fontStyle=1;strokeColor=default;fontSize=16;" parent="1" vertex="1">
          <mxGeometry x="1250" y="336.38" width="290" height="120" as="geometry" />
        </mxCell>
        <mxCell id="0R-H_kfF0VCHGT1HLo31-211" value="" style="shape=tableRow;horizontal=0;startSize=0;swimlaneHead=0;swimlaneBody=0;top=0;left=0;bottom=0;right=0;collapsible=0;dropTarget=0;fillColor=none;points=[[0,0.5],[1,0.5]];portConstraint=eastwest;strokeColor=default;fontSize=16;" parent="0R-H_kfF0VCHGT1HLo31-210" vertex="1">
          <mxGeometry y="30" width="290" height="30" as="geometry" />
        </mxCell>
        <mxCell id="0R-H_kfF0VCHGT1HLo31-212" value="SCL" style="shape=partialRectangle;html=1;whiteSpace=wrap;connectable=0;fillColor=none;top=0;left=0;bottom=0;right=0;overflow=hidden;pointerEvents=1;strokeColor=default;fontSize=16;" parent="0R-H_kfF0VCHGT1HLo31-211" vertex="1">
          <mxGeometry width="64" height="30" as="geometry">
            <mxRectangle width="64" height="30" as="alternateBounds" />
          </mxGeometry>
        </mxCell>
        <mxCell id="0R-H_kfF0VCHGT1HLo31-213" value="SPI Clock Pin&amp;nbsp;" style="shape=partialRectangle;html=1;whiteSpace=wrap;connectable=0;fillColor=none;top=0;left=0;bottom=0;right=0;align=left;spacingLeft=6;overflow=hidden;strokeColor=default;fontSize=16;" parent="0R-H_kfF0VCHGT1HLo31-211" vertex="1">
          <mxGeometry x="64" width="226" height="30" as="geometry">
            <mxRectangle width="226" height="30" as="alternateBounds" />
          </mxGeometry>
        </mxCell>
        <mxCell id="0R-H_kfF0VCHGT1HLo31-214" value="" style="shape=tableRow;horizontal=0;startSize=0;swimlaneHead=0;swimlaneBody=0;top=0;left=0;bottom=0;right=0;collapsible=0;dropTarget=0;fillColor=none;points=[[0,0.5],[1,0.5]];portConstraint=eastwest;strokeColor=default;fontSize=16;" parent="0R-H_kfF0VCHGT1HLo31-210" vertex="1">
          <mxGeometry y="60" width="290" height="30" as="geometry" />
        </mxCell>
        <mxCell id="0R-H_kfF0VCHGT1HLo31-215" value="SDA" style="shape=partialRectangle;html=1;whiteSpace=wrap;connectable=0;fillColor=none;top=0;left=0;bottom=0;right=0;overflow=hidden;strokeColor=default;fontSize=16;" parent="0R-H_kfF0VCHGT1HLo31-214" vertex="1">
          <mxGeometry width="64" height="30" as="geometry">
            <mxRectangle width="64" height="30" as="alternateBounds" />
          </mxGeometry>
        </mxCell>
        <mxCell id="0R-H_kfF0VCHGT1HLo31-216" value="SPI Serial Data IN" style="shape=partialRectangle;html=1;whiteSpace=wrap;connectable=0;fillColor=none;top=0;left=0;bottom=0;right=0;align=left;spacingLeft=6;overflow=hidden;strokeColor=default;fontSize=16;" parent="0R-H_kfF0VCHGT1HLo31-214" vertex="1">
          <mxGeometry x="64" width="226" height="30" as="geometry">
            <mxRectangle width="226" height="30" as="alternateBounds" />
          </mxGeometry>
        </mxCell>
        <mxCell id="0R-H_kfF0VCHGT1HLo31-217" value="" style="shape=tableRow;horizontal=0;startSize=0;swimlaneHead=0;swimlaneBody=0;top=0;left=0;bottom=0;right=0;collapsible=0;dropTarget=0;fillColor=none;points=[[0,0.5],[1,0.5]];portConstraint=eastwest;strokeColor=default;fontSize=16;" parent="0R-H_kfF0VCHGT1HLo31-210" vertex="1">
          <mxGeometry y="90" width="290" height="30" as="geometry" />
        </mxCell>
        <mxCell id="0R-H_kfF0VCHGT1HLo31-218" value="SDO" style="shape=partialRectangle;html=1;whiteSpace=wrap;connectable=0;fillColor=none;top=0;left=0;bottom=0;right=0;overflow=hidden;strokeColor=default;fontSize=16;" parent="0R-H_kfF0VCHGT1HLo31-217" vertex="1">
          <mxGeometry width="64" height="30" as="geometry">
            <mxRectangle width="64" height="30" as="alternateBounds" />
          </mxGeometry>
        </mxCell>
        <mxCell id="0R-H_kfF0VCHGT1HLo31-219" value="SPI Serial Data OUT" style="shape=partialRectangle;html=1;whiteSpace=wrap;connectable=0;fillColor=none;top=0;left=0;bottom=0;right=0;align=left;spacingLeft=6;overflow=hidden;strokeColor=default;fontSize=16;" parent="0R-H_kfF0VCHGT1HLo31-217" vertex="1">
          <mxGeometry x="64" width="226" height="30" as="geometry">
            <mxRectangle width="226" height="30" as="alternateBounds" />
          </mxGeometry>
        </mxCell>
        <mxCell id="0R-H_kfF0VCHGT1HLo31-221" value="CS" style="shape=partialRectangle;html=1;whiteSpace=wrap;connectable=0;fillColor=none;top=0;left=0;bottom=0;right=0;overflow=hidden;strokeColor=default;fontSize=16;" parent="1" vertex="1">
          <mxGeometry x="1250" y="456.38" width="64" height="30" as="geometry">
            <mxRectangle width="64" height="30" as="alternateBounds" />
          </mxGeometry>
        </mxCell>
        <mxCell id="0R-H_kfF0VCHGT1HLo31-222" value="Chip Select" style="shape=partialRectangle;html=1;whiteSpace=wrap;connectable=0;fillColor=none;top=0;left=0;bottom=0;right=0;align=left;spacingLeft=6;overflow=hidden;strokeColor=default;fontSize=16;" parent="1" vertex="1">
          <mxGeometry x="1314" y="456.38" width="226" height="30" as="geometry">
            <mxRectangle width="226" height="30" as="alternateBounds" />
          </mxGeometry>
        </mxCell>
        <mxCell id="0R-H_kfF0VCHGT1HLo31-226" value="" style="group;" parent="1" vertex="1" connectable="0">
          <mxGeometry x="30" y="70" width="245.9072727272727" height="190" as="geometry" />
        </mxCell>
        <mxCell id="0R-H_kfF0VCHGT1HLo31-227" value="&lt;span style=&quot;font-size: 17px;&quot;&gt;&lt;b&gt;LM6DSOX&lt;/b&gt;&lt;/span&gt;" style="rounded=0;whiteSpace=wrap;html=1;" parent="0R-H_kfF0VCHGT1HLo31-226" vertex="1">
          <mxGeometry width="240" height="190" as="geometry" />
        </mxCell>
        <mxCell id="0R-H_kfF0VCHGT1HLo31-228" value="&lt;strike&gt;I2C&lt;/strike&gt;" style="rounded=1;whiteSpace=wrap;html=1;strokeColor=#6c8ebf;fontSize=17;rotation=-90;fillColor=#dae8fc;" parent="0R-H_kfF0VCHGT1HLo31-226" vertex="1">
          <mxGeometry y="65.51724137931035" width="65.45454545454545" height="58.96551724137932" as="geometry" />
        </mxCell>
        <mxCell id="0R-H_kfF0VCHGT1HLo31-229" value="&lt;strike&gt;I2C&lt;/strike&gt;" style="rounded=1;whiteSpace=wrap;html=1;strokeColor=#6c8ebf;fontSize=17;rotation=-90;fillColor=#dae8fc;" parent="0R-H_kfF0VCHGT1HLo31-226" vertex="1">
          <mxGeometry x="169.09090909090907" y="65.51724137931035" width="76.36363636363635" height="58.96551724137932" as="geometry" />
        </mxCell>
        <mxCell id="0R-H_kfF0VCHGT1HLo31-230" value="3V" style="text;html=1;align=center;verticalAlign=middle;resizable=0;points=[];autosize=1;strokeColor=none;fillColor=none;fontSize=17;rotation=-90;" parent="0R-H_kfF0VCHGT1HLo31-226" vertex="1">
          <mxGeometry x="43.18545454545455" y="159.9996551724138" width="40" height="30" as="geometry" />
        </mxCell>
        <mxCell id="0R-H_kfF0VCHGT1HLo31-231" value="GND" style="text;html=1;align=center;verticalAlign=middle;resizable=0;points=[];autosize=1;strokeColor=none;fillColor=none;fontSize=17;rotation=-90;" parent="0R-H_kfF0VCHGT1HLo31-226" vertex="1">
          <mxGeometry x="59.54909090909091" y="153.44793103448276" width="60" height="30" as="geometry" />
        </mxCell>
        <mxCell id="0R-H_kfF0VCHGT1HLo31-232" value="SCL" style="text;html=1;align=center;verticalAlign=middle;resizable=0;points=[];autosize=1;strokeColor=none;fillColor=none;fontSize=17;rotation=-90;" parent="0R-H_kfF0VCHGT1HLo31-226" vertex="1">
          <mxGeometry x="86.82181818181819" y="153.44793103448276" width="60" height="30" as="geometry" />
        </mxCell>
        <mxCell id="0R-H_kfF0VCHGT1HLo31-233" value="SDA" style="text;html=1;align=center;verticalAlign=middle;resizable=0;points=[];autosize=1;strokeColor=none;fillColor=none;fontSize=17;rotation=-90;" parent="0R-H_kfF0VCHGT1HLo31-226" vertex="1">
          <mxGeometry x="114.09454545454544" y="153.44793103448276" width="60" height="30" as="geometry" />
        </mxCell>
        <mxCell id="0R-H_kfF0VCHGT1HLo31-234" value="D0" style="text;html=1;align=center;verticalAlign=middle;resizable=0;points=[];autosize=1;strokeColor=none;fillColor=none;fontSize=17;rotation=-90;" parent="0R-H_kfF0VCHGT1HLo31-226" vertex="1">
          <mxGeometry x="141.36727272727268" y="157.37896551724137" width="50" height="30" as="geometry" />
        </mxCell>
        <mxCell id="0R-H_kfF0VCHGT1HLo31-235" value="SCX" style="text;html=1;align=center;verticalAlign=middle;resizable=0;points=[];autosize=1;strokeColor=none;fillColor=none;fontSize=17;rotation=-90;" parent="0R-H_kfF0VCHGT1HLo31-226" vertex="1">
          <mxGeometry x="0.003636363636363882" y="7.862068965517241" width="60" height="30" as="geometry" />
        </mxCell>
        <mxCell id="0R-H_kfF0VCHGT1HLo31-236" value="SDX" style="text;html=1;align=center;verticalAlign=middle;resizable=0;points=[];autosize=1;strokeColor=none;fillColor=none;fontSize=17;rotation=-90;" parent="0R-H_kfF0VCHGT1HLo31-226" vertex="1">
          <mxGeometry x="28.185454545454547" y="7.858620689655172" width="60" height="30" as="geometry" />
        </mxCell>
        <mxCell id="0R-H_kfF0VCHGT1HLo31-237" value="CS" style="text;html=1;align=center;verticalAlign=middle;resizable=0;points=[];autosize=1;strokeColor=none;fillColor=none;fontSize=17;rotation=-90;" parent="0R-H_kfF0VCHGT1HLo31-226" vertex="1">
          <mxGeometry x="59.54909090909091" y="7.862068965517241" width="50" height="30" as="geometry" />
        </mxCell>
        <mxCell id="0R-H_kfF0VCHGT1HLo31-238" value="D0" style="text;html=1;align=center;verticalAlign=middle;resizable=0;points=[];autosize=1;strokeColor=none;fillColor=none;fontSize=17;rotation=-90;" parent="0R-H_kfF0VCHGT1HLo31-226" vertex="1">
          <mxGeometry x="88.18636363636362" y="7.86" width="50" height="30" as="geometry" />
        </mxCell>
        <mxCell id="0R-H_kfF0VCHGT1HLo31-239" value="" style="endArrow=classic;startArrow=none;html=1;rounded=0;strokeWidth=2;fontSize=17;endFill=1;startFill=0;exitX=0.5;exitY=0;exitDx=0;exitDy=0;" parent="0R-H_kfF0VCHGT1HLo31-226" edge="1">
          <mxGeometry width="50" height="50" relative="1" as="geometry">
            <mxPoint x="184.1800000000003" y="28.999999999999943" as="sourcePoint" />
            <mxPoint x="184" y="4.759999999999991" as="targetPoint" />
          </mxGeometry>
        </mxCell>
        <mxCell id="0R-H_kfF0VCHGT1HLo31-240" value="" style="endArrow=classic;startArrow=none;html=1;rounded=0;strokeWidth=2;fontSize=17;endFill=1;startFill=0;exitX=1;exitY=0.5;exitDx=0;exitDy=0;" parent="0R-H_kfF0VCHGT1HLo31-226" source="0R-H_kfF0VCHGT1HLo31-241" edge="1">
          <mxGeometry width="50" height="50" relative="1" as="geometry">
            <mxPoint x="190" y="33.75999999999999" as="sourcePoint" />
            <mxPoint x="213.73000000000008" y="34" as="targetPoint" />
          </mxGeometry>
        </mxCell>
        <mxCell id="0R-H_kfF0VCHGT1HLo31-241" value="" style="ellipse;whiteSpace=wrap;html=1;aspect=fixed;strokeColor=default;fontSize=17;" parent="0R-H_kfF0VCHGT1HLo31-226" vertex="1">
          <mxGeometry x="179.18000000000006" y="29" width="10" height="10" as="geometry" />
        </mxCell>
        <mxCell id="0R-H_kfF0VCHGT1HLo31-242" value="Z" style="text;html=1;align=center;verticalAlign=middle;resizable=0;points=[];autosize=1;strokeColor=none;fillColor=none;fontSize=16;fontStyle=1" parent="0R-H_kfF0VCHGT1HLo31-226" vertex="1">
          <mxGeometry x="159.1800000000001" y="29.999999999999996" width="30" height="30" as="geometry" />
        </mxCell>
        <mxCell id="0R-H_kfF0VCHGT1HLo31-243" value="&lt;b style=&quot;font-size: 16px;&quot;&gt;Y&lt;/b&gt;" style="text;html=1;align=center;verticalAlign=middle;resizable=0;points=[];autosize=1;strokeColor=none;fillColor=none;fontSize=16;" parent="0R-H_kfF0VCHGT1HLo31-226" vertex="1">
          <mxGeometry x="158.18000000000006" y="-5" width="30" height="30" as="geometry" />
        </mxCell>
        <mxCell id="0R-H_kfF0VCHGT1HLo31-244" value="&lt;b style=&quot;font-size: 16px;&quot;&gt;X&lt;/b&gt;" style="text;html=1;align=center;verticalAlign=middle;resizable=0;points=[];autosize=1;strokeColor=none;fillColor=none;fontSize=16;" parent="0R-H_kfF0VCHGT1HLo31-226" vertex="1">
          <mxGeometry x="198.18000000000006" y="31" width="30" height="30" as="geometry" />
        </mxCell>
        <mxCell id="0R-H_kfF0VCHGT1HLo31-246" value="GND" style="text;html=1;align=center;verticalAlign=middle;resizable=0;points=[];autosize=1;strokeColor=none;fillColor=none;fontSize=17;rotation=-90;" parent="0R-H_kfF0VCHGT1HLo31-226" vertex="1">
          <mxGeometry x="104.54636363636364" y="9" width="60" height="30" as="geometry" />
        </mxCell>
        <mxCell id="0R-H_kfF0VCHGT1HLo31-247" value="I1" style="text;html=1;align=center;verticalAlign=middle;resizable=0;points=[];autosize=1;strokeColor=none;fillColor=none;fontSize=17;rotation=-90;" parent="0R-H_kfF0VCHGT1HLo31-226" vertex="1">
          <mxGeometry x="167.82454545454544" y="157.37793103448274" width="40" height="30" as="geometry" />
        </mxCell>
        <mxCell id="0R-H_kfF0VCHGT1HLo31-248" value="I2" style="text;html=1;align=center;verticalAlign=middle;resizable=0;points=[];autosize=1;strokeColor=none;fillColor=none;fontSize=17;rotation=-90;" parent="0R-H_kfF0VCHGT1HLo31-226" vertex="1">
          <mxGeometry x="189.54727272727268" y="157.37896551724134" width="40" height="30" as="geometry" />
        </mxCell>
        <mxCell id="0R-H_kfF0VCHGT1HLo31-245" value="VIN" style="text;html=1;align=center;verticalAlign=middle;resizable=0;points=[];autosize=1;strokeColor=none;fillColor=none;fontSize=17;rotation=-90;spacing=0;" parent="0R-H_kfF0VCHGT1HLo31-226" vertex="1">
          <mxGeometry x="8.008181818181868" y="158.4479310344828" width="50" height="30" as="geometry" />
        </mxCell>
        <mxCell id="J4FtGfQfyY-0UoAzzFxa-2" value="" style="group" vertex="1" connectable="0" parent="1">
          <mxGeometry x="470" y="160" width="315" height="540" as="geometry" />
        </mxCell>
        <mxCell id="0R-H_kfF0VCHGT1HLo31-1" value="" style="rounded=0;whiteSpace=wrap;html=1;rotation=-90;fillColor=#e1d5e7;strokeColor=#9673a6;" parent="J4FtGfQfyY-0UoAzzFxa-2" vertex="1">
          <mxGeometry x="-115" y="115" width="540" height="310" as="geometry" />
        </mxCell>
        <mxCell id="0R-H_kfF0VCHGT1HLo31-4" value="SCL" style="text;html=1;align=center;verticalAlign=middle;resizable=0;points=[];autosize=1;strokeColor=none;fillColor=none;fontStyle=1;fontSize=17;" parent="J4FtGfQfyY-0UoAzzFxa-2" vertex="1">
          <mxGeometry x="5" y="40" width="60" height="30" as="geometry" />
        </mxCell>
        <mxCell id="0R-H_kfF0VCHGT1HLo31-5" value="5" style="text;html=1;align=center;verticalAlign=middle;resizable=0;points=[];autosize=1;strokeColor=none;fillColor=none;fontStyle=1;fontSize=17;" parent="J4FtGfQfyY-0UoAzzFxa-2" vertex="1">
          <mxGeometry x="20" y="70" width="30" height="30" as="geometry" />
        </mxCell>
        <mxCell id="0R-H_kfF0VCHGT1HLo31-6" value="6" style="text;html=1;align=center;verticalAlign=middle;resizable=0;points=[];autosize=1;strokeColor=none;fillColor=none;fontStyle=1;fontSize=17;" parent="J4FtGfQfyY-0UoAzzFxa-2" vertex="1">
          <mxGeometry x="20" y="100" width="30" height="30" as="geometry" />
        </mxCell>
        <mxCell id="0R-H_kfF0VCHGT1HLo31-7" value="9" style="text;html=1;align=center;verticalAlign=middle;resizable=0;points=[];autosize=1;strokeColor=none;fillColor=none;fontStyle=1;fontSize=17;" parent="J4FtGfQfyY-0UoAzzFxa-2" vertex="1">
          <mxGeometry x="20" y="130" width="30" height="30" as="geometry" />
        </mxCell>
        <mxCell id="0R-H_kfF0VCHGT1HLo31-8" value="10" style="text;html=1;align=center;verticalAlign=middle;resizable=0;points=[];autosize=1;strokeColor=none;fillColor=none;fontStyle=1;fontSize=17;" parent="J4FtGfQfyY-0UoAzzFxa-2" vertex="1">
          <mxGeometry x="15" y="160" width="40" height="30" as="geometry" />
        </mxCell>
        <mxCell id="0R-H_kfF0VCHGT1HLo31-9" value="11" style="text;html=1;align=center;verticalAlign=middle;resizable=0;points=[];autosize=1;strokeColor=none;fillColor=none;fontStyle=1;fontSize=17;" parent="J4FtGfQfyY-0UoAzzFxa-2" vertex="1">
          <mxGeometry x="15" y="190" width="40" height="30" as="geometry" />
        </mxCell>
        <mxCell id="0R-H_kfF0VCHGT1HLo31-10" value="12" style="text;html=1;align=center;verticalAlign=middle;resizable=0;points=[];autosize=1;strokeColor=none;fillColor=none;fontStyle=1;fontSize=17;" parent="J4FtGfQfyY-0UoAzzFxa-2" vertex="1">
          <mxGeometry x="15" y="220" width="40" height="30" as="geometry" />
        </mxCell>
        <mxCell id="0R-H_kfF0VCHGT1HLo31-11" value="13" style="text;html=1;align=center;verticalAlign=middle;resizable=0;points=[];autosize=1;strokeColor=none;fillColor=none;fontStyle=1;fontSize=17;" parent="J4FtGfQfyY-0UoAzzFxa-2" vertex="1">
          <mxGeometry x="15" y="250" width="40" height="30" as="geometry" />
        </mxCell>
        <mxCell id="0R-H_kfF0VCHGT1HLo31-12" value="USB" style="text;html=1;align=center;verticalAlign=middle;resizable=0;points=[];autosize=1;strokeColor=none;fillColor=none;fontStyle=1;fontSize=17;" parent="J4FtGfQfyY-0UoAzzFxa-2" vertex="1">
          <mxGeometry x="5" y="280" width="60" height="30" as="geometry" />
        </mxCell>
        <mxCell id="0R-H_kfF0VCHGT1HLo31-13" value="En" style="text;html=1;align=center;verticalAlign=middle;resizable=0;points=[];autosize=1;strokeColor=none;fillColor=none;fontStyle=1;fontSize=17;" parent="J4FtGfQfyY-0UoAzzFxa-2" vertex="1">
          <mxGeometry x="10" y="310" width="50" height="30" as="geometry" />
        </mxCell>
        <mxCell id="0R-H_kfF0VCHGT1HLo31-14" value="Bat" style="text;html=1;align=center;verticalAlign=middle;resizable=0;points=[];autosize=1;strokeColor=none;fillColor=none;fontStyle=1;fontSize=17;" parent="J4FtGfQfyY-0UoAzzFxa-2" vertex="1">
          <mxGeometry x="10" y="340" width="50" height="30" as="geometry" />
        </mxCell>
        <mxCell id="0R-H_kfF0VCHGT1HLo31-17" value="SDA" style="text;html=1;align=center;verticalAlign=middle;resizable=0;points=[];autosize=1;strokeColor=none;fillColor=none;fontStyle=1;fontSize=17;" parent="J4FtGfQfyY-0UoAzzFxa-2" vertex="1">
          <mxGeometry x="5" y="10" width="60" height="30" as="geometry" />
        </mxCell>
        <mxCell id="0R-H_kfF0VCHGT1HLo31-37" value="TX" style="text;html=1;align=center;verticalAlign=middle;resizable=0;points=[];autosize=1;strokeColor=none;fillColor=none;fontStyle=1;fontSize=16;" parent="J4FtGfQfyY-0UoAzzFxa-2" vertex="1">
          <mxGeometry x="265" y="40" width="40" height="30" as="geometry" />
        </mxCell>
        <mxCell id="0R-H_kfF0VCHGT1HLo31-38" value="RX" style="text;html=1;align=center;verticalAlign=middle;resizable=0;points=[];autosize=1;strokeColor=none;fillColor=none;fontStyle=1;fontSize=16;" parent="J4FtGfQfyY-0UoAzzFxa-2" vertex="1">
          <mxGeometry x="260" y="70" width="50" height="30" as="geometry" />
        </mxCell>
        <mxCell id="0R-H_kfF0VCHGT1HLo31-39" value="MI" style="text;html=1;align=center;verticalAlign=middle;resizable=0;points=[];autosize=1;strokeColor=none;fillColor=none;fontStyle=1;fontSize=16;" parent="J4FtGfQfyY-0UoAzzFxa-2" vertex="1">
          <mxGeometry x="265" y="100" width="40" height="30" as="geometry" />
        </mxCell>
        <mxCell id="0R-H_kfF0VCHGT1HLo31-40" value="SCK" style="text;html=1;align=center;verticalAlign=middle;resizable=0;points=[];autosize=1;strokeColor=none;fillColor=none;fontStyle=1;fontSize=16;" parent="J4FtGfQfyY-0UoAzzFxa-2" vertex="1">
          <mxGeometry x="255" y="160" width="60" height="30" as="geometry" />
        </mxCell>
        <mxCell id="0R-H_kfF0VCHGT1HLo31-41" value="B0" style="text;html=1;align=center;verticalAlign=middle;resizable=0;points=[];autosize=1;strokeColor=none;fillColor=none;fontStyle=1;fontSize=16;" parent="J4FtGfQfyY-0UoAzzFxa-2" vertex="1">
          <mxGeometry x="265" y="10" width="40" height="30" as="geometry" />
        </mxCell>
        <mxCell id="0R-H_kfF0VCHGT1HLo31-42" value="RST" style="text;html=1;align=center;verticalAlign=middle;resizable=0;points=[];autosize=1;strokeColor=none;fillColor=none;fontStyle=1;fontSize=16;" parent="J4FtGfQfyY-0UoAzzFxa-2" vertex="1">
          <mxGeometry x="255" y="430" width="60" height="30" as="geometry" />
        </mxCell>
        <mxCell id="0R-H_kfF0VCHGT1HLo31-43" value="3.3V" style="text;html=1;align=center;verticalAlign=middle;resizable=0;points=[];autosize=1;strokeColor=none;fillColor=none;fontStyle=1;fontSize=16;" parent="J4FtGfQfyY-0UoAzzFxa-2" vertex="1">
          <mxGeometry x="255" y="400" width="60" height="30" as="geometry" />
        </mxCell>
        <mxCell id="0R-H_kfF0VCHGT1HLo31-44" value="GND" style="text;html=1;align=center;verticalAlign=middle;resizable=0;points=[];autosize=1;strokeColor=none;fillColor=none;fontStyle=1;fontSize=16;" parent="J4FtGfQfyY-0UoAzzFxa-2" vertex="1">
          <mxGeometry x="255" y="370" width="60" height="30" as="geometry" />
        </mxCell>
        <mxCell id="0R-H_kfF0VCHGT1HLo31-45" value="A0" style="text;html=1;align=center;verticalAlign=middle;resizable=0;points=[];autosize=1;strokeColor=none;fillColor=none;fontStyle=1;fontSize=16;" parent="J4FtGfQfyY-0UoAzzFxa-2" vertex="1">
          <mxGeometry x="265" y="340" width="40" height="30" as="geometry" />
        </mxCell>
        <mxCell id="0R-H_kfF0VCHGT1HLo31-46" value="A1" style="text;html=1;align=center;verticalAlign=middle;resizable=0;points=[];autosize=1;strokeColor=none;fillColor=none;fontStyle=1;fontSize=16;" parent="J4FtGfQfyY-0UoAzzFxa-2" vertex="1">
          <mxGeometry x="265" y="310" width="40" height="30" as="geometry" />
        </mxCell>
        <mxCell id="0R-H_kfF0VCHGT1HLo31-47" value="A2" style="text;html=1;align=center;verticalAlign=middle;resizable=0;points=[];autosize=1;strokeColor=none;fillColor=none;fontStyle=1;fontSize=16;" parent="J4FtGfQfyY-0UoAzzFxa-2" vertex="1">
          <mxGeometry x="265" y="280" width="40" height="30" as="geometry" />
        </mxCell>
        <mxCell id="0R-H_kfF0VCHGT1HLo31-48" value="A3" style="text;html=1;align=center;verticalAlign=middle;resizable=0;points=[];autosize=1;strokeColor=none;fillColor=none;fontStyle=1;fontSize=16;" parent="J4FtGfQfyY-0UoAzzFxa-2" vertex="1">
          <mxGeometry x="265" y="250" width="40" height="30" as="geometry" />
        </mxCell>
        <mxCell id="0R-H_kfF0VCHGT1HLo31-49" value="A4" style="text;html=1;align=center;verticalAlign=middle;resizable=0;points=[];autosize=1;strokeColor=none;fillColor=none;fontStyle=1;fontSize=16;" parent="J4FtGfQfyY-0UoAzzFxa-2" vertex="1">
          <mxGeometry x="265" y="220" width="40" height="30" as="geometry" />
        </mxCell>
        <mxCell id="0R-H_kfF0VCHGT1HLo31-50" value="A5" style="text;html=1;align=center;verticalAlign=middle;resizable=0;points=[];autosize=1;strokeColor=none;fillColor=none;fontStyle=1;fontSize=16;" parent="J4FtGfQfyY-0UoAzzFxa-2" vertex="1">
          <mxGeometry x="265" y="190" width="40" height="30" as="geometry" />
        </mxCell>
        <mxCell id="0R-H_kfF0VCHGT1HLo31-51" value="MO" style="text;html=1;align=center;verticalAlign=middle;resizable=0;points=[];autosize=1;strokeColor=none;fillColor=none;fontStyle=1;fontSize=16;" parent="J4FtGfQfyY-0UoAzzFxa-2" vertex="1">
          <mxGeometry x="260" y="130" width="50" height="30" as="geometry" />
        </mxCell>
        <mxCell id="0R-H_kfF0VCHGT1HLo31-52" value="JST" style="rounded=0;whiteSpace=wrap;html=1;rotation=-90;fillColor=#f8cecc;strokeColor=#b85450;fontStyle=1" parent="J4FtGfQfyY-0UoAzzFxa-2" vertex="1">
          <mxGeometry x="-20" y="415" width="120" height="60" as="geometry" />
        </mxCell>
        <mxCell id="0R-H_kfF0VCHGT1HLo31-53" value="&lt;strike&gt;I2C&lt;/strike&gt;" style="rounded=0;whiteSpace=wrap;html=1;fillColor=#dae8fc;strokeColor=#6c8ebf;fontStyle=1" parent="J4FtGfQfyY-0UoAzzFxa-2" vertex="1">
          <mxGeometry x="170" y="10" width="80" height="30" as="geometry" />
        </mxCell>
        <mxCell id="0R-H_kfF0VCHGT1HLo31-54" value="STM32F405" style="rhombus;whiteSpace=wrap;html=1;fillColor=#d5e8d4;strokeColor=#82b366;fontStyle=1;fontSize=16;" parent="J4FtGfQfyY-0UoAzzFxa-2" vertex="1">
          <mxGeometry x="100" y="255" width="140" height="140" as="geometry" />
        </mxCell>
        <mxCell id="0R-H_kfF0VCHGT1HLo31-55" value="USBC" style="rounded=1;whiteSpace=wrap;html=1;fillColor=#dae8fc;strokeColor=#6c8ebf;fontStyle=1" parent="J4FtGfQfyY-0UoAzzFxa-2" vertex="1">
          <mxGeometry x="90" y="470" width="120" height="60" as="geometry" />
        </mxCell>
        <mxCell id="J4FtGfQfyY-0UoAzzFxa-4" style="edgeStyle=orthogonalEdgeStyle;rounded=0;orthogonalLoop=1;jettySize=auto;html=1;fontSize=16;endArrow=none;endFill=0;" edge="1" parent="1">
          <mxGeometry relative="1" as="geometry">
            <mxPoint x="400" y="185" as="sourcePoint" />
            <mxPoint x="174" y="260" as="targetPoint" />
            <Array as="points">
              <mxPoint x="330" y="185" />
              <mxPoint x="330" y="288" />
              <mxPoint x="174" y="288" />
            </Array>
          </mxGeometry>
        </mxCell>
        <mxCell id="J4FtGfQfyY-0UoAzzFxa-8" style="edgeStyle=orthogonalEdgeStyle;rounded=0;orthogonalLoop=1;jettySize=auto;html=1;fontSize=16;endArrow=none;endFill=0;entryX=0.954;entryY=-0.001;entryDx=0;entryDy=0;entryPerimeter=0;" edge="1" parent="1" source="0R-H_kfF0VCHGT1HLo31-152" target="0R-H_kfF0VCHGT1HLo31-1">
          <mxGeometry relative="1" as="geometry">
            <mxPoint x="410" y="185" as="targetPoint" />
            <Array as="points">
              <mxPoint x="206" y="760" />
              <mxPoint x="330" y="760" />
              <mxPoint x="330" y="185" />
            </Array>
          </mxGeometry>
        </mxCell>
        <mxCell id="J4FtGfQfyY-0UoAzzFxa-10" style="edgeStyle=orthogonalEdgeStyle;rounded=0;jumpStyle=arc;jumpSize=19;orthogonalLoop=1;jettySize=auto;html=1;fontSize=16;endArrow=none;endFill=0;entryX=-0.045;entryY=0.406;entryDx=0;entryDy=0;entryPerimeter=0;exitX=0.898;exitY=0;exitDx=0;exitDy=0;exitPerimeter=0;" edge="1" parent="1" source="0R-H_kfF0VCHGT1HLo31-1" target="0R-H_kfF0VCHGT1HLo31-232">
          <mxGeometry relative="1" as="geometry">
            <mxPoint x="400" y="260" as="targetPoint" />
            <Array as="points">
              <mxPoint x="380" y="215" />
              <mxPoint x="380" y="390" />
              <mxPoint x="144" y="390" />
            </Array>
          </mxGeometry>
        </mxCell>
        <mxCell id="J4FtGfQfyY-0UoAzzFxa-11" style="edgeStyle=orthogonalEdgeStyle;rounded=0;jumpStyle=arc;jumpSize=19;orthogonalLoop=1;jettySize=auto;html=1;entryX=-0.026;entryY=0.561;entryDx=0;entryDy=0;entryPerimeter=0;fontSize=16;endArrow=none;endFill=0;exitX=0.898;exitY=-0.001;exitDx=0;exitDy=0;exitPerimeter=0;" edge="1" parent="1" source="0R-H_kfF0VCHGT1HLo31-1" target="0R-H_kfF0VCHGT1HLo31-151">
          <mxGeometry relative="1" as="geometry">
            <Array as="points">
              <mxPoint x="380" y="215" />
              <mxPoint x="380" y="770" />
              <mxPoint x="180" y="770" />
            </Array>
          </mxGeometry>
        </mxCell>
      </root>
    </mxGraphModel>
  </diagram>
</mxfile>
